<svg width="300" height="120" viewBox="0 0 300 120" xmlns="http://www.w3.org/2000/svg"><g fill="none" fill-rule="evenodd"><path d="M294.468 4.48L229.16 2 94.154 5.043l-87.639.39c-1.98.22-3.496 1.684-3.588 3.467L.505 36.076a3.223 3.223 0 00-.004.199L.947 85.38c.002.166-.01.331-.033.495l-.88 24.917c-.313 2.19 1.593 4.129 4.06 4.129L64.74 119l159.927-5.629 68.196 1.55c2.261 0 4.094-1.64 4.094-3.664L299 82.815l-2.043-34.676 1.853-39.43c.105-2.24-1.839-4.133-4.342-4.228" fill-opacity=".908" fill="#FFF"/><path d="M71 7.385c.569.088 1.462.17 3 .23l-3-.23m226.578 70.02c-.039-.187-.087-.345-.149-.405l-.007.142.151.858.005-.595zM192 2.626l3-.252c-1.744.11-2.588.188-3 .252m-63 .927l2-.106c-.684.017-1.35.057-2 .106M1.495 15.354l-.032.358c.09-.352.096-.53.032-.358m110.609 101.158c.979-.124 1.55.009 2.473-.003 2.066-.578-4.265.285-1.266-.309-.916.066-1.64.173-2.311.282l1.307.318c1.806-.284-1.21-.055-.203-.288M296.8 95.51l.2-.51c-.271.345-.215.026-.946 1.982-.317 1.678.901-.913.193 2.018.16-.564.452-1.407.748-2.202-.61 1.192-.438.002-.195-1.289m-.663.392c.09-.149.18-.32.272-.508.17-.504.348-.995.509-1.393-.2.378-.514 1.139-.836 2l.055-.099M147 116.529c.368-.013.698-.024 1-.036-.487-.043-.779-.019-1 .036m105.765.034c.816-.479-.626.046-2.253-.202l-1.512.27c1.386.054 2.666-.04 3.765-.068" fill="#231916"/><path d="M111.326 116.478c0 .016 0 .028-.066.044l.48-.02-.414-.023zm93.674-.003c.201.02.514.043 1 .05l-1-.05M297.387 76l-.03 2.628c.268 1.248-.021 5.141.286 6.372l-.256-9zM63 116.527c.365-.015.708-.032 1-.054-.63.009-.932.028-1 .054M178.215 2.515l.57-.03c-.224.01-.41.02-.57.03m6.409 113.98l-.248.01c.096-.003.177-.006.248-.01" fill="#231916"/><path d="M299.459 83.076l-.003-.346.012.149-.01.197zm-.241 6.519c-.17 1.58.01-2.162-.032-2.861l.217-2.373c-.022.708.014.639.182-1.166l-.367 6.4zm-.833 6.262c-.203 2.714-.131 2.051-.586 7.184l.215-.862c-.227 2.663-.372 3.516-.408 3.635a404.596 404.596 0 01-.32 4.423c.006-.384.025-.93.085-1.877-.178 1.56-.224 2.26-.238 2.826v.026l-.002.024c-.006.126.012.247-.003.371-.043.431-.23.989-.614 1.443-.098.13-.213.248-.335.358a4.552 4.552 0 00.795-1.83c.026-.138.05-.276.057-.408.01-.128.022-.28.026-.367 1.1-9.523.389-6.635 1.301-14.753.01-.062.018-.123.027-.193l.008-.113.043-.374-.022.101.133-1.715.268-2.944c-.138 2.024-.284 3.909-.43 5.045zm-1.4 16.444l-.007.02c.057-.145.089-.299.121-.448-.028.126-.052.277-.113.428zm-71.863 1.666a37.112 37.112 0 012.254-.106l.329.016c-.64.026-1.204.057-1.627.094-.328 0-.646-.001-.956-.004zm-58.126 2.14l1.38-.031c-.686.044-1.221.092-1.1.135-.965.007-.739-.045-.28-.104zM59.532 117.74c.588.003 1.213.015 1.84.028.546.064 2.8.227 4.98.336l-.92.032-5.9-.396zm-6.366-.333a62.765 62.765 0 01-1.45-.06 3.33 3.33 0 01.58-.04c.545.046 1.587.112.87.1zm-26.217-1.79c-.271-.078.44-.05 1.386.008a97.868 97.868 0 00-1.386-.007zm29.106 1.889l-.977-.066c.552.023 1.208.047 1.998.07-.577-.016-.893-.015-1.02-.004zm114.273-1.562a.874.874 0 00.075.021c-.418.022-1.118.055-1.751.093-.764-.003-1.02.01-1.06.014a.983.983 0 00.16-.028l-.366.015c.407-.047.801-.09.705-.105a100.406 100.406 0 001.388-.01l-.802.036c.789-.018 1.32-.03 1.651-.036zm98.479-2.213c.041.004.09.008.149.011a44.59 44.59 0 00-1.678-.005l-1.125-.014c.5-.018 1.464-.01 2.654.008zm-4.144.046c.198-.066 1.428-.045 2.261-.03-.693.024-.933.067-2.089.04l-.172-.01zm-35.26.038c-.323-.01-.654-.023-1.002-.037.205.019.337.037.436.056l-.742.026c-.793-.036-1.471-.087-1.76-.152.66-.059 2.57-.002 4.345.067l-1.278.04zM1.14 111.328c-.005-.116.01-.216.022-.292.011-.077.018-.13.023-.152l.002-.006.006-.077c.04-.524.052-.413.05.003v.035l-.008.058c-.049.351.034 1.05.326 1.489.269.443.545.644.335.363a2.684 2.684 0 01-.472-.926 2.365 2.365 0 01-.067-.895l.01-.087v-.029c.165-5.627-.01-7.514.145-11.554.144-3.37.171-4.72.205-6.36.047-.782.087-1.228.108-.983.257-4.65-.06-.233.01-2.674l-.076 1.81c.02-.82.049-1.805.092-3.09l.013-.17c.006.43.032.124.067-.523.022.039.026.463.017 1.095.056-1.082.14-2.686.208-4.057l.014.35-.009-.464c.08-1.66.133-2.94.071-2.457l-.057.88c-.019-.124-.013-.583-.003-1.08a.087.087 0 01.006-.022 1.306 1.306 0 01-.004-.047c.008-.386.019-.788.023-1.07.079-1.673.116-2.053.142-2.103l.04.972c-.009-.224-.017-.58-.024-.966.017.039.03.146.056-.11.287-5.536-.148-.466.096-5.535l.064-.659.01-.306c-.155-2.05-.332-4.834-.466-6.05l.002-.321c-.008-.317-.012-.621-.017-.927.09 1.635.181 3.144.276 4.042-.108-2.66.204 1.51.325 2.615l-.55-7.68v-.029c.03.28.067-2.285.11.618.004-2.026-.151-3.876-.123-.778l-.037-.506a80.023 80.023 0 00-.01-.82c.014-2.029.068-3.767.065-5.178-.098-2.378-.262-2.477-.284-8.33l.137 2.561c-.057-6.623-.195-3.105-.245-9.239.006 2.157-.131-2.082-.097 2.017-.04-1.007-.072-2.627-.095-4.411l-.025-2.744c.002-.12-.003-.165.011-.297l.032-.339.063-.669.125-1.284c.06-.864-.022-.186-.046-.348-.102.913-.18 1.731-.246 2.493-.007.09-.021.199-.02.274l-.002.115.002.14.009.545.02 1.05c.028 1.375.05 2.667.007 4.181l.146 2.562c-.013 3.43-.109 3.78-.176 1.68.014.968.038 1.814.024 2.52-.18.59.028-4.117-.14-5.303l.036 2.422c-.11 1.052-.157-5.656-.177-8.778.01-.441-.01-.88.023-1.304l.128-1.235.227-2.166c.136-1.268.24-2.127.294-2.24l-.384 4.715c.287-2.434.497-6.02.745-8.76.028-.18.06-.442.095-.762-.02.14-.035.219-.043.218a40.52 40.52 0 01.173-1.539c.22-2.405.482-5.941.71-8.177l-.102.269.016.308c-.2 2.201-.514 5.182-.423 3.509.39-4.972.628-5.956.801-7.13.017 1.157-.434 4.848-.62 7.378.254-1.506.464-5.05 1-10.17-.054 2.06-.533 5.949-.516 7.092.196-2.066.295-3.371.398-4.703l.17-2.117.11-1.259c.01-.104.02-.21.032-.318a2.738 2.738 0 01.244-.866c-.026.112-.148.38-.19.742l-.111 1.532c-.08 1.096-.148 2.089-.097 1.954l.286-2.786c-.605 6.856.267-1.18-.18 4.17.14-1.258.192-2.142.26-3.159l.056-.794.032-.432.033-.373c.031-.2.083-.405.19-.627.11-.217.265-.442.476-.652a2.489 2.489 0 00-.42.479c-.14.19-.218.4-.279.522-.045.126-.074.168-.064.027.023-.134.067-.484.429-1.005.585-.745 1.453-1.169 2.321-1.296.552-.027-.138.065-.702.32-.279.133-.527.284-.603.363-.078.078-.013.031.37-.138.204-.094.414-.178.631-.238.11-.025.217-.063.328-.077l.167-.029.046-.008.076-.003 1.53-.036c-.104-.05-1.57-.07-.65-.145 1.768.048 2.899-.212 4.98-.297 1.657-.003 2.974.002 3.56.06 3.906-.16 8.791-.187 12.557-.322l.083.007c-.362.024-.463.046-.387.067l-.813-.009c1.21.106 1.732.115 2.106.093.479.02 1.01.039 1.45.059-.73.008-1.284.024-1.703.045-2.208-.036-4.86-.083-6.822-.052l5.682.182c-.111.043-.066.087.009.124a25.07 25.07 0 001.756-.08c8.698.07 19.39.463 26.707.376l-.316-.004a.807.807 0 00.297-.07l.336.036 1.474-.055c1.677.148 4.814.241 7.484.389-1.676-.11-1.676-.11-1.842-.203.333-.11.59-.154 3.082-.054.027.084-1.51.047.327.155-.949-.062-.104-.102.982-.088l2.399.118c.763.037 1.354.075 1.37.117-.649.008-1.173-.033-1.612-.055-.649.008 2.638.135.71.16l2.533.033c.74.023.494.05.137.089-.357.019-.825.027-.53.057.526.018 1.02-.026 1.49-.05l1.34-.083 2.409-.174c1.542-.117 3.033-.231 4.938-.326-.178.05-.218.238-.178.183 2.932-.047 6.288-.424 9.624-.556-.49.073-1.738.094-2.747.156 10.207-.287 18.565-.577 28.141-.735l2.489-.28 2.503.04c3.304-.076 6.354-.17 9.302-.275.384-.008.77-.017 1.16-.024l-.178.025c6.622-.008 12.638-.313 19.496-.509-.556.034-.7.103-1.13.136 3.453-.038 8.976-.137 11.402-.35 4.103.079 2.717-.113 7.994-.066.304.024-.524.04-.875.055 2.594-.001 4.434-.06 7.058-.1 5.79-.24 7.222-.496 13.952-.58.343.229-4.136.152-4.285.343 1.34-.072 2.503-.146 4.357-.132-1.112.118-.241.064-1.009.168.708.014 2.136-.08 3.384-.174a1395.603 1395.603 0 012.124-.169c.117-.009.181-.013.178-.01.077-.047-.41-.06-1.738-.024 1.57-.181 6.61-.161 9.869-.293-1.06.02-4.39.048-3.14-.091 4.373-.049 5.826-.309 8.883-.472 4.027.017-2.971.266-2.214.415.675.045 2.292.141.6.244 3.62-.046 6.228-.247 9.457-.355l-.089.048c2.255-.06 4.585-.169 6.825-.26l3.271-.119.782-.02c.258 0 .512.017.764.026l1.464.078-2.007-.13c.74 0 3.014.1 4.267.052-.115.062 1.994.202 1.884.255 2.4-.122 10.06.249 12.217.104 1.203.108.239.173-.127.215-2.845-.129-3.81-.215-5.305-.172 2.367.086 4.1.216 3.736.259 2.371-.065 8.011.087 9.204-.023 1.729.144 3.378.248 2.771.355 7.263.194-3.584-.535 4.617-.223 3.735.267-3.652.032 1.505.27l-.952-.016c1.615.206 2.32.207 2.947.156.503.074.97.125 1.372.124l-.68-.192c.576-.058 1.314-.113 2.714-.072l.54.062c-.046.076-1.003.06-1.218.08l-.098-.007c-.233.171 5.12.463 2.913.486 3.259.188-.461-.126 1.488-.065l2.842.23-2.193-.209c2.374.103 3.192.016 6.356.333l3.29.038c.329.17 2.396.188 4.086.335l-1.061.023c2.247.146 3.116.23 4.521.378-1.269.045-2.034-.168-2.579-.081l2.467.208c-.01-.084 1.562-.044-.205-.213 1.147 0 2.034-.012 3.352.026.322.009.671.018 1.058.03.363.036.762.107 1.186.275.42.17.872.435 1.274.87.398.425.761 1.048.78 1.795.006.117-.01.217-.022.293-.01.077-.017.13-.023.151l-.001.007-.006.077c-.04.524-.052.412-.05-.003V9.16l.008-.058c.05-.351-.034-1.051-.326-1.489-.269-.444-.545-.644-.335-.363.23.297.388.617.472.925.085.31.098.607.067.896l-.01.087v.029c-.165 5.627.01 7.513-.145 11.554-.144 3.37-.171 4.72-.205 6.36-.048.783-.087 1.228-.108.983-.257 4.65.06.233-.01 2.674l.076-1.81c-.02.82-.049 1.805-.092 3.09l-.013.169c-.006-.429-.032-.123-.067.523-.022-.038-.026-.462-.017-1.094-.056 1.081-.14 2.686-.208 4.057l-.014-.35.009.464c-.081 1.66-.133 2.939-.072 2.457l.058-.88c.019.123.013.583.002 1.08a.064.064 0 01-.005.022l.004.046c-.008.387-.019.789-.023 1.07-.079 1.674-.116 2.054-.142 2.104l-.04-.972c.009.224.017.58.024.966-.017-.039-.03-.146-.056.11-.288 5.536.149.465-.096 5.534l-.064.66-.01.306c.155 2.05.332 4.834.466 6.049l-.002.322c.008.316.012.621.017.927-.09-1.635-.181-3.145-.276-4.042.108 2.66-.204-1.51-.325-2.615l.55 7.68v.029c-.03-.28-.068 2.285-.11-.619-.004 2.027.15 3.877.123.779l.037.506c.001.172.004.46.01.82-.013 2.028-.068 3.766-.065 5.178.098 2.378.262 2.477.284 8.33l-.138-2.562c.059 6.623.195 3.106.246 9.24-.006-2.158.13 2.082.097-2.018.04 1.007.072 2.627.095 4.412l.026 2.744c-.003.12.002.165-.012.296l-.032.34-.063.669-.125 1.284c-.06.864.022.185.046.348.102-.913.18-1.731.246-2.493.007-.091.021-.199.02-.274l.002-.116-.002-.139-.009-.545-.02-1.052a81.72 81.72 0 01-.007-4.18l-.146-2.561c.013-3.43.109-3.78.176-1.68-.014-.968-.038-1.815-.024-2.52.18-.59-.028 4.117.14 5.303l-.035-2.422c.11-1.052.156 5.655.176 8.778-.01.441.01.88-.023 1.304l-.128 1.235-.227 2.166c-.136 1.268-.24 2.127-.294 2.24l.384-4.715c-.287 2.434-.497 6.02-.745 8.76-.028.18-.06.442-.095.761.02-.14.035-.219.043-.218a40.184 40.184 0 01-.173 1.54c-.22 2.404-.482 5.941-.71 8.177l.102-.269-.016-.308c.2-2.201.514-5.182.423-3.509-.39 4.972-.629 5.956-.801 7.13-.017-1.157.434-4.848.62-7.378-.254 1.506-.464 5.05-1 10.17.054-2.06.533-5.95.516-7.092-.196 2.065-.295 3.371-.398 4.703l-.17 2.117-.11 1.258-.031.319a2.738 2.738 0 01-.244.866c.025-.112.147-.38.189-.742l.111-1.532c.08-1.096.147-2.089.097-1.954l-.286 2.786c.605-6.856-.267 1.18.179-4.17-.139 1.258-.191 2.142-.26 3.158l-.055.795-.033.431-.032.374a2.16 2.16 0 01-.19.626c-.11.217-.265.442-.476.653.126-.105.289-.286.42-.48.14-.19.218-.4.279-.521.045-.126.073-.168.064-.027-.023.134-.067.483-.43 1.005-.585.745-1.452 1.168-2.32 1.295-.552.028.138-.065.702-.32.279-.132.527-.283.603-.362.078-.079.013-.032-.369.138a4.184 4.184 0 01-.632.238c-.11.024-.217.063-.329.077l-.165.028-.046.01-.077.002-1.53.036c.104.05 1.57.07.65.145-1.768-.048-2.899.211-4.98.297-1.657.003-2.973-.002-3.56-.06-3.906.16-8.791.187-12.557.322l-.083-.007c.362-.025.463-.047.387-.067l.813.008c-1.21-.106-1.732-.114-2.106-.092-.48-.02-1.01-.04-1.45-.059.73-.009 1.285-.024 1.704-.045 2.207.036 4.86.082 6.82.052l-5.681-.182c.11-.043.067-.088-.009-.124a25 25 0 00-1.756.08c-8.698-.07-19.39-.464-26.708-.377l.317.004a.82.82 0 00-.297.071l-.336-.036-1.474.055c-1.677-.148-4.814-.241-7.484-.389 1.676.11 1.676.11 1.842.202-.333.11-.59.154-3.081.054-.028-.083 1.509-.047-.328-.154.949.062.104.102-.982.088-.701-.035-1.636-.08-2.399-.119-.763-.037-1.354-.074-1.37-.116.649-.008 1.172.032 1.612.055.649-.008-2.638-.135-.711-.16l-2.532-.034c-.74-.022-.494-.048-.137-.088.357-.019.825-.028.53-.057-.526-.018-1.02.026-1.49.05l-1.34.083-2.409.174c-1.542.116-3.033.231-4.939.326.18-.05.22-.238.179-.183-2.932.047-6.288.423-9.624.556.49-.073 1.737-.094 2.747-.157-10.207.288-18.565.578-28.141.736l-2.489.28-2.503-.04c-3.304.076-6.354.17-9.302.275l-1.161.024.18-.025c-6.624.008-12.639.313-19.497.509.556-.035.7-.103 1.13-.137-3.453.039-8.976.138-11.402.351-4.103-.08-2.717.113-7.994.066-.303-.024.524-.04.875-.055-2.594 0-4.434.06-7.058.099-5.79.24-7.222.497-13.952.58-.343-.228 4.136-.151 4.285-.343-1.34.072-2.503.147-4.357.133 1.112-.118.241-.064 1.009-.168-.708-.015-2.136.079-3.384.173l-1.624.13-.5.04a1.612 1.612 0 01-.178.01c-.077.047.41.06 1.738.024-1.57.18-6.61.16-9.869.292 1.06-.019 4.389-.048 3.14.092-4.373.048-5.826.308-8.883.472-4.027-.017 2.971-.266 2.214-.415-.675-.045-2.292-.141-.6-.244-3.62.046-6.228.246-9.457.355l.089-.049c-2.255.06-4.585.17-6.825.261l-3.271.119-.782.02c-.258 0-.513-.017-.764-.027l-1.464-.077 2.007.13c-.74 0-3.014-.1-4.267-.052.115-.062-1.995-.203-1.884-.255-2.4.122-10.06-.249-12.217-.104-1.203-.108-.24-.173.127-.216 2.845.13 3.81.215 5.305.173-2.367-.087-4.1-.216-3.736-.26-2.371.066-8.011-.087-9.204.024-1.729-.144-3.378-.248-2.771-.355-7.263-.195 3.584.535-4.617.222-3.735-.266 3.651-.03-1.504-.27l.951.017c-1.615-.206-2.32-.207-2.947-.156a9.645 9.645 0 00-1.372-.124l.68.192c-.576.058-1.314.113-2.714.072l-.54-.062c.046-.076 1.003-.06 1.218-.08l.098.007c.233-.171-5.121-.464-2.913-.487-3.26-.188.461.127-1.488.065l-2.842-.23 2.193.21c-2.374-.104-3.192-.016-6.356-.333l-3.29-.038c-.33-.17-2.397-.188-4.085-.335l1.06-.023a93.239 93.239 0 01-4.521-.378c1.269-.045 2.034.167 2.579.081l-2.467-.209c.01.085-1.562.045.205.214-1.147 0-2.034.012-3.352-.026l-1.058-.03a4.327 4.327 0 01-1.186-.275 3.49 3.49 0 01-1.274-.87c-.398-.425-.761-1.048-.78-1.796zM.542 36.923l.002.347-.012-.149.01-.198zm.24-6.518c.17-1.58-.01 2.162.032 2.861L.597 35.64c.022-.708-.014-.64-.182 1.165l.367-6.399zM1.83 61.068c-.035-.494-.07-.99-.103-1.478l-.01-1.895c.013.144.026.301.039.478.023.99.049 1.95.074 2.895zm.453 10.885a62.087 62.087 0 00-.013-.453l.018.192-.005.261zm-.206-3.47l-.016-.15-.004-.369.02.518zm-.004 13.792l.017.405c-.013.284-.027.567-.042.85.005-.56.013-1.02.025-1.255zm-.357-22.836l-.001-.292c-.01-.707-.02-1.29-.03-1.788.01.093.021.204.031.325l-.001 1.463.005.346a3.875 3.875 0 00-.004-.054zm.19 4.453c-.034-.34-.1-1.22-.172-2.164l-.009-.902c.055.893.108 1.753.15 1.872.01.4.02.798.032 1.194zm.247 17.15a200.8 200.8 0 01-.076-3.553l.008-.198-.01.144c-.04-2.544-.078-5.698-.121-7.815l-.078.728c-.038-2.158-.092-4.864-.127-7.45.074.911.137 1.577.203 2.74.017.698.034 1.399.049 2.106l-.105-1.017.124 2.005c.032 1.67.053 3.389.059 5.224.164 2.017.059-1.13.003-4.224l.122 1.96c-.01.143-.016.256-.021.34a1.71 1.71 0 01-.018.169c.007 0 .014-.049.02-.14l.023-.368-.087-1.432c.019.084.038.212.058.373.026.845.055 1.563.088 1.988-.061 2.366-.199 5.576-.06 5.127l.125-2.442c-.084 2.195-.123 4.02-.18 5.735zM1.45 51.238c.055-2.184.147-1.945.245-1.22-.03 1.373.016 3.697.01 5.955l.002.069c-.032-.313-.06-.578-.09-.958-.026-.612-.056-1.073-.09-1.826.023.025.083.601.106.773-.074-1.458-.122-1.978-.172-2.445l-.011-.348zm.164-27.095c.203-2.714.131-2.051.586-7.184l-.215.862c.227-2.663.372-3.517.408-3.635.103-1.566.208-2.973.32-4.424-.006.385-.025.93-.085 1.878.178-1.56.224-2.26.238-2.827v-.025l.002-.025c.006-.126-.012-.247.003-.37.043-.431.23-.989.614-1.443.098-.13.213-.248.335-.358a4.542 4.542 0 00-.852 2.237c-.01.129-.022.281-.026.368-1.1 9.523-.389 6.635-1.302 14.752l-.026.194-.008.113-.043.373.022-.1-.133 1.718-.268 2.942c.138-2.025.284-3.91.43-5.046zm1.4-16.444l.007-.02c-.057.145-.089.298-.121.448.028-.126.052-.277.113-.428zm67.582-1.515c.322.01.654.022 1.002.037a4.73 4.73 0 01-.436-.056c.254-.009.502-.017.743-.027.792.037 1.47.088 1.758.153-.66.058-2.568.002-4.345-.067l1.278-.04zm-39.404.084a3.366 3.366 0 00-.149-.011c.773.013 1.291.012 1.677.004l1.126.015c-.5.018-1.463.009-2.654-.008zm4.144-.047c-.198.067-1.428.046-2.261.03.693-.024.933-.067 2.089-.04l.172.01zm39.541-.189c-.571.045-1.163.082-2.254.107l-.329-.016a36.95 36.95 0 001.626-.095c.33 0 .647.002.957.004zm58.126-2.14l-1.38.032c.686-.044 1.221-.092 1.1-.135.965-.007.738.045.28.104zm-1.681.155a99.51 99.51 0 00-.801.007l.8-.036c-.788.019-1.32.031-1.65.037-.016-.005-.036-.012-.075-.021.418-.022 1.118-.056 1.751-.093.764.003 1.02-.011 1.06-.014a.945.945 0 00-.16.028l.365-.015c-.407.047-.8.09-.704.105-.173.002-.365.003-.586.002zM240.468 2.26a142.26 142.26 0 01-1.84-.029c-.546-.063-2.8-.227-4.98-.335l.92-.032 5.9.396zm3.476.234l.977.066a153.19 153.19 0 00-1.997-.07c.577.016.893.015 1.02.004zm2.89.098c.605.02 1.072.04 1.45.06a3.17 3.17 0 01-.58.04c-.545-.045-1.587-.111-.87-.1zm26.216 1.79c.272.079-.439.051-1.385-.007.49.006.951.008 1.385.007zm25.12 54.55c.035.494.07.99.103 1.479l.01 1.894a32.177 32.177 0 01-.039-.478c-.024-.99-.049-1.95-.074-2.895zm-.453-10.886l.013.456-.018-.193.005-.263zm.206 3.473l.016.148.004.369-.02-.517zm.004-13.793l-.017-.406.042-.85a35.77 35.77 0 01-.025 1.256zm.357 22.836l.001.292c.01.707.02 1.29.03 1.788a14.7 14.7 0 01-.032-.326l.002-1.462-.005-.346.004.054zm-.19-4.454c.034.34.1 1.22.172 2.164l.008.903c-.054-.893-.107-1.753-.148-1.873l-.033-1.194zm-.247-17.15c.027.708.052 2.015.076 3.553l-.008.198.01-.144c.04 2.544.078 5.7.122 7.816l.077-.728c.038 2.157.092 4.864.127 7.449-.074-.91-.137-1.577-.203-2.74a683.42 683.42 0 01-.049-2.105l.105 1.017-.124-2.006a326.23 326.23 0 01-.059-5.223c-.164-2.017-.06 1.13-.003 4.224l-.122-1.961c.01-.142.016-.256.021-.339.007-.09.013-.147.018-.17-.007 0-.014.05-.02.14l-.023.369.087 1.431a4.55 4.55 0 01-.058-.372 48.08 48.08 0 00-.089-1.989c.062-2.366.2-5.575.062-5.126l-.126 2.441c.084-2.194.123-4.02.18-5.735zm.702 29.805c-.055 2.183-.147 1.945-.245 1.22.03-1.373-.016-3.697-.01-5.955l-.002-.07c.032.313.06.578.09.959.026.611.056 1.073.09 1.825-.023-.024-.083-.6-.106-.773.074 1.459.122 1.979.172 2.446l.011.348zm.581-34.645c.304-8.528.588-16.842.84-24.844l-.011.136c.088-.64.032-1.32-.14-1.901a4.359 4.359 0 00-.743-1.468l.073.004a4.526 4.526 0 00-.986-.988 4.824 4.824 0 00-2.217-.914 3.799 3.799 0 00-.558-.053l-.52-.033-4.051-.283-8.081-.556-16.091-1.089c-10.713-.71-21.383-1.42-32.06-2.128l-35.072 1.228c-3.1.172-1.227.256-3.899.426l-2.33.07c-.803.02-1.462.023-1.47-.018 2.249-.125.98-.155 1.748-.214-3.737.14-8.568.212-11.896.431l2.793.01c-1.297.091-3.335.132-4.509.168.467-.069-1.026-.124-.344-.182-6.862.498-5.39.069-11.269.38-1.051.243-7.08.626-11.834.944l-2.497.028c.17-.054-.152-.104 2.454-.189-2.458.04-4.79.156-7.107.25-4.14.06-8.593.145-13.608.283l-.07.006c-.22-.01-.308-.027-.161-.058-3.15.242-4.267.207-7.659.41 1.622-.011 1.561.021 1.061.066l-4.678.041.364-.02c1.026-.025 2.1-.05 3.274-.081-.595-.046 2.018-.209.672-.153l-.431.016c.675-.037 1.38-.07 2.115-.094-2.393.037-5.817.039-8.776.225l-.05.07c-.252.006-.545.01-.895.01-.271.102.408.073-1.822.185a223.14 223.14 0 012.646-.094l-.026.037c-.524.019-.949.043-1.316.067-1.925.036-3.618.001-4.233.005.661-.153 4.027-.133 5.522-.302l-2.193-.052-.13.114-3.123.04.175-.025a8.17 8.17 0 01-1.55.082c-.125-.011-.396-.032-.154-.047l-2.167.108c1.296-.143-1.956.01-1.633-.128-7.266.097-9.241.385-15.638.349 1.04.053-2.025.22-3.992.202-1.135-.027-1.422-.056-.702-.109l-2.577.079c-3.231-.19-6.383-.045-11.116-.094l.244-.059c-1.752.076-3.641.14-6.277.13l.48-.118c-3.223-.067-2.46.254-6.018.196.02.124 2.262.178 2.61.295-.84-.123-4.66-.125-3.77-.039-3.546.067-2.458.008-2.762-.02l-2.082.084c-2.49.006-.798-.16.122-.235-2.322.144-4.855.061-7.493.052l1.069-.06-3.471-.008c-2.262.107-5.432.129-8.354.09l2.018-.173c-2.052-.076-1.056.062-1.599.092-3.24.095-3.937-.014-5.651-.099-5.191.195-10.34-.222-14.788.043l-.543-.094a160.84 160.84 0 01-4.979.1l-.346-.033c-1.548-.01-1.752.008-1.544.041l-2.222.003c-.016-.016.017-.032.116-.046-2.318-.06-1.748-.013-1.067.047l-1.634.004-1.112.008-.137.001-.111.002-.097.015-.233.036.09-.041-.381-.011-.297.012c-.165.003-.265.028-.32.035-.111.02-.04.018.08.012.24-.01.676.012.242.045-.694-.014-1.725.332-2.174.69.633-.404.996-.458 1.172-.518.182-.04.196-.022.2-.01.002.013-.005.027.135.002a3.41 3.41 0 01.341-.055c.108-.02.246-.032.412-.042-.058.016-.116.03-.174.052-.313.1-.62.236-.914.407-.3.135-.67.304-1.152.666a3.9 3.9 0 00-1.193 1.242c-.094.142-.142.247-.179.31-.037.064-.059.087-.07.088-.051.01.048-.385-.16.007a3.9 3.9 0 00-.184 1.147v-.02l-.219 3.336-.082-.01c-.185 2.874-.156 3.551-.475 7.523.13-2.883-.505 5.955-.323 1.969-.186 2.201-.074 2.862-.264 3.975-.023 1.544.186-1.976.294-3.087.19-.885-.29 4.858-.447 7.511-.081.215.05-1.778-.217 1.336.003.647-.102 2.636-.29 4.399.017.002.017.148.006.395l-.026.442-.04.586c.06 1.186.148 2.882.203 3.944C.343 39.07.232 36.174.38 37.476c.062.777.117 1.5.182 2.476l.024 3.518a7.637 7.637 0 00-.07-.632c.037.524.06.865.073 1.094L.67 55.198l.112 15.474.06 7.672.032 3.811.017 1.898.008.947c0 .154.005.325.003.464a2.508 2.508 0 00-.018.276l-.013.143c-.304 8.528-.588 16.842-.84 24.844l.011-.136c-.088.64-.032 1.32.14 1.9a4.36 4.36 0 00.743 1.469l-.073-.005c.3.405.634.736.985.989a4.824 4.824 0 002.218.914 3.9 3.9 0 00.558.053l.52.033 4.052.282 8.08.557 16.091 1.089c10.713.71 21.383 1.42 32.06 2.128l35.072-1.228c3.1-.172 1.227-.256 3.899-.426l2.33-.07c.802-.02 1.462-.024 1.47.018-2.249.125-.98.154-1.748.214 3.737-.14 8.568-.213 11.897-.432l-2.794-.01c1.297-.09 3.335-.131 4.509-.167-.467.068 1.026.124.344.182 6.862-.499 5.389-.07 11.269-.381 1.051-.242 7.08-.626 11.834-.944l2.497-.027c-.17.054.152.104-2.454.189 2.458-.04 4.79-.156 7.107-.25 4.14-.06 8.593-.145 13.608-.284l.07-.005c.221.01.308.027.161.058 3.15-.242 4.267-.207 7.659-.41-1.622.011-1.561-.021-1.061-.066l4.679-.041-.364.02c-1.026.024-2.1.05-3.275.08.595.047-2.018.21-.672.153l.431-.016c-.675.037-1.38.071-2.115.095 2.393-.037 5.817-.04 8.776-.225l.05-.07c.252-.006.545-.01.895-.011.27-.101-.408-.073 1.822-.184-.909.037-1.779.067-2.646.093l.026-.036c.524-.02.949-.043 1.316-.068 1.925-.035 3.618 0 4.233-.004-.661.152-4.027.133-5.522.302l2.193.051.13-.113 3.123-.04-.175.025a8.162 8.162 0 011.55-.082c.125.011.396.032.155.046l2.166-.107c-1.295.143 1.956-.01 1.633.128 7.267-.097 9.241-.385 15.638-.35-1.04-.053 2.025-.22 3.992-.201 1.135.027 1.422.055.702.109l2.577-.079c3.231.19 6.383.044 11.116.094l-.244.059a124.62 124.62 0 016.277-.13l-.48.118c3.223.067 2.46-.254 6.018-.196-.02-.125-2.262-.179-2.61-.295.84.123 4.66.125 3.77.038 3.546-.066 2.458-.007 2.762.021l2.081-.085c2.491-.005.798.16-.121.235 2.322-.144 4.855-.06 7.493-.051l-1.069.06 3.47.007c2.263-.107 5.433-.128 8.355-.09l-2.018.173c2.052.077 1.056-.061 1.598-.091 3.241-.095 3.938.013 5.652.098 5.191-.194 10.341.223 14.788-.043l.543.094c1.615-.061 3.293-.088 4.978-.1l.347.033c1.548.01 1.752-.007 1.544-.04l2.222-.003c.016.016-.017.031-.116.046 2.318.06 1.747.012 1.066-.048.55 0 1.098-.002 1.635-.003l1.112-.008.137-.002.111-.001.097-.015.233-.037-.09.042.381.01.297-.011c.165-.003.265-.028.32-.035.112-.02.04-.018-.08-.012-.24.01-.676-.012-.242-.045.694.014 1.725-.333 2.173-.69-.632.403-.995.458-1.172.518-.182.039-.195.022-.198.01-.003-.013.003-.027-.136-.002a3.51 3.51 0 01-.34.054c-.109.02-.247.032-.413.042.058-.016.116-.03.174-.05.313-.101.62-.238.914-.408.3-.136.67-.305 1.153-.667a3.902 3.902 0 001.192-1.241c.094-.142.142-.248.18-.311.036-.063.058-.087.07-.087.05-.01-.05.384.16-.007.117-.36.176-.753.183-1.148v.02l.219-3.336.082.011c.185-2.874.156-3.551.475-7.523-.13 2.883.505-5.955.323-1.969.186-2.202.074-2.862.264-3.975.023-1.545-.186 1.976-.294 3.087-.19.885.29-4.858.447-7.511.082-.215-.05 1.778.218-1.337-.004-.646.101-2.635.289-4.398-.017-.002-.017-.148-.005-.396l.025-.442.04-.585c-.06-1.186-.148-2.882-.203-3.944.102 1.992.213 4.888.064 3.586a177.9 177.9 0 01-.182-2.477l-.024-3.517c.026.306.05.532.07.632-.037-.524-.06-.865-.073-1.095l-.079-11.266-.112-15.473-.06-7.672-.032-3.812-.017-1.897-.008-.947c0-.154-.005-.325-.003-.464.011-.092.017-.182.018-.276l.013-.143z" fill="#231916"/><path d="M296.454 38.376c.034.242.065.31.091.262-.03-.241-.06-.345-.09-.262M1.793 77l-.659 3c.168-.463.588-1.615.732-2.308L1.793 77zM.617 25c-.084.344-.164.68-.234 1 .083-.34.16-.672.234-1M0 25c.402-1.555 1.004-3.413 1-4-.405.878-.595 2.295-1 4m.809-10.142C1.31 13.002.452 15.579 1 13c-.35 1.43-.651 2.284-1 4 .154-.294.407-.858.804-2.865l.005.723zm70.21-6.22c.793-.16-3.344-.574-1.574-.285-.793.127 4.726.608 1.574.285M145 3.554c.354-.026.7-.061 1-.108l-1 .108m0-.547c-.864.111-1.923.072-1.846.301-1.249.063-3.726.432-4.154.685 1.964-.298 3.702-.535 6-.986m16.826-.727c-1.359.217-3.221.282-2.752.438.768.031 3.657-.37 2.752-.438M281.86 4.479c-2.43-.368-1.104.003-2.86-.18 2.167.434 3.441.551 2.86.18m4.14.33l-2-.618.34.184zm10.782 2.682a5.015 5.015 0 00-.782-.146c.378.042.703.17.877.265.171.077.185.066-.095-.119m-2.634-2.111l-.148.125c.21.023.615.071 1 .115-.35-.052-.72-.136-.852-.24" fill="#231916"/><path d="M295.045 7.022c.14.056.605.199 1.028.395.21.1.41.21.569.304.15.104.268.186.32.232.089.105-.033.018-.738-.281.401.154.735.37 1.057.585.292.231.548.479.719.743-.31-.673-1.123-1.333-2.102-1.753-.8-.27-1-.27-.853-.225M296.173 34c1.065-8.745-.262-4.464.718-12.225-.603 3.748.072-2.52.109-3.775-.387 2.855-.31 6.984-.84 8.595-.616 8.094.8-1.854.013 7.405m1.674-17.962c-.19-.432-.713 2.916-.7 3.962.174-.973.78-2.648.7-3.962m-1.267 18.316a3.28 3.28 0 00-.173.552l-.023.494-.047.987.187.613-.034-1.293-.017-.647-.005-.162c.005-.063.029-.144.044-.215a4.52 4.52 0 01.137-.44l-.045.12.059-.363-.083.354zm-.073 7.286l-.014-.28.014.28zm.456 42.113c.01-.065.048-.16.034-.19l-.009-.13a28.545 28.545 0 00-.039-.28c-.026-.143-.052-.195-.078-.117l.023.48.002.078-.034.125-.066.253-.266 1.01L296 87l.387-1.127c.219-.736.437-1.54.576-2.12m.939-.236l-.053-.622c-.085-.862-.21-1.854-.193-2.895.01 1.182.013 1.703.017 2.295.01.296.02.61.032 1.033.001.104.022.225.001.333-.023.114-.108.247-.166.384l-.446.955c.227-.259.426-.57.613-.925.082-.177.223-.366.195-.558M296 92c.17-1.155.706-2.932 1-4-.307.515-1.013 3.447-1 4m.12 7.258c-.517 2.951-.967 6.056-1.12 7.742.19-.774.549-1.82.455-.594.64-4.724.674-7.162 1.263-9.442L297 93c-.61 3.77-.218 2.915-.625 5.532-.275 1.372-.053-.31-.255.726M296 93c.434-.489.727-2.907 1-4l-.647 1.907c.236-.377-.126 1.075-.353 2.093m-10.699 21.594l2.699-.188-4 .174zM284 114.49l-.1-.15-2.9.32z" fill="#231916"/><path fill="#231916" d="M281.502 114.582l2.498-.164-3 .146zm-6.512-.13c-.735.113-2.49.104-2.99-.065l.613.211c.845-.07 2.538.152 2.376-.146m-29.939 1.844l-2.05.394c.61-.025 1.812-.07 2.309.014 1.291-.156.518-.28-.258-.407m-5.759.123l.729-.156-3.021.47c3.481.022 3.966-.324 7-.43-1.287-.119-3.083.213-4.708.115M229 114.616c-.57-.089-1.462-.171-3-.232l3 .232M.422 42.595c.038.187.086.345.148.405l.008-.142L.427 42l-.005.595zM106 118.374l-3 .252c1.744-.11 2.588-.187 3-.252m64-1.927l-2 .106c.684-.016 1.35-.057 2-.106m126.505-10.802l.032-.358c-.09.353-.096.532-.032.358M185.896 4.488c-.979.124-1.55-.009-2.473.003-2.066.578 4.265-.285 1.266.309.916-.065 1.64-.172 2.311-.281l-1.307-.319c-1.806.284 1.21.055.203.288M1.2 25.49L1 26c.271-.345.214-.026.946-1.982.317-1.678-.901.913-.194-2.018-.16.564-.452 1.407-.747 2.202.61-1.192.437-.002.195 1.289"/><path d="M1.863 24.099c-.09.149-.18.32-.272.509-.17.504-.347.994-.508 1.392.199-.378.512-1.139.835-2l-.055.099M152 4.471l-1 .036c.487.043.779.019 1-.036M46.235 4.437c-.816.478.626-.046 2.253.201L50 4.37c-1.386-.056-2.666.04-3.765.067m141.439.085c0-.016 0-.027.066-.044l-.48.02.415.024zM95 4.526a12.515 12.515 0 00-1-.051c.353.019.665.034 1 .05M.357 37l.256 9 .03-2.628C.376 42.124.664 38.232.357 37m1.189 46.624c-.036-.242-.065-.31-.092-.262.03.241.06.346.092.262m111.83-79.119l.248-.01-.248.01m7.409 113.98l-.57.03c.224-.009.41-.02.57-.03M236 3.473c-.365.016-.708.032-1 .054.63-.008.932-.028 1-.054M296.207 43l.659-3c-.168.464-.589 1.615-.732 2.309l.073.691zM298 96c-.401 1.554-1.003 3.413-1 4 .405-.878.595-2.295 1-4m.384 0c.083-.343.162-.68.232-1-.082.34-.159.672-.232 1m-1.193 10.142c-.501 1.856.357-.72-.191 1.858.35-1.43.652-2.284 1-4-.154.294-.407.859-.804 2.865l-.005-.723zm-68.636 6.505c.794-.127-4.726-.608-1.574-.284-.793.16 3.344.573 1.574.284M154 116.446c-.354.026-.7.061-1 .108l1-.108m0 .546c.864-.11 1.923-.072 1.846-.301 1.249-.062 3.726-.431 4.154-.683-1.964.297-3.702.535-6 .984m-16.826-.272c1.359-.218 3.221-.283 2.752-.438-.768-.032-3.657.37-2.752.437m-121.034-.198c2.43.367 1.104-.004 2.86.18-2.167-.434-3.441-.552-2.86-.18m-4.14-.329l2 .617-.34-.184zm-9.782-1.683c.098.026.42.112.782.146a2.51 2.51 0 01-.877-.265c-.171-.077-.185-.065.095.119M5 114.496l-1-.116c.35.052.72.137.852.24l.148-.124z" fill="#231916"/><path d="M2.955 114.978c-.14-.055-.605-.198-1.028-.395-.21-.1-.41-.21-.57-.305a4.67 4.67 0 01-.32-.231c-.088-.105.034-.019.739.281-.401-.155-.736-.37-1.058-.584-.291-.233-.548-.48-.718-.744.309.673 1.123 1.333 2.102 1.753.8.27 1 .27.853.225M1.827 87c-1.065 8.745.263 4.464-.718 12.225.603-3.748-.071 2.521-.109 3.775.387-2.855.311-6.984.84-8.595.616-8.095-.8 1.854-.013-7.405M.153 103.962c.19.432.713-2.916.7-3.962-.174.973-.78 2.648-.7 3.962M1.42 85.647c.073-.187.14-.38.173-.553l.024-.494.046-.987L1.476 83l.034 1.294.018.647.004.161c-.006.063-.028.144-.044.215a4.486 4.486 0 01-.137.44l.044-.12-.058.363.083-.353zm.072-6.286c.006.102.01.196.016.278l-.016-.278zm-.456-42.114c-.01.065-.047.16-.033.19l.008.13c.016.113.03.207.039.28.026.143.053.195.078.117l-.022-.48-.002-.078.034-.125.066-.253.266-1.01L2 34l-.387 1.127c-.218.736-.437 1.54-.577 2.12m-.938.236l.053.622c.085.863.21 1.854.193 2.895-.01-1.182-.013-1.702-.017-2.295-.01-.296-.02-.61-.032-1.033-.001-.104-.021-.224-.001-.333.023-.114.109-.247.166-.384L.906 36c-.227.259-.426.57-.613.925-.082.177-.223.366-.195.558M2 30c-.169 1.155-.706 2.932-1 4 .307-.515 1.012-3.447 1-4m.88-8.258C3.396 18.791 3.846 15.686 4 14c-.19.773-.548 1.82-.455.594-.64 4.723-.674 7.162-1.264 9.442L2 28c.609-3.77.218-2.915.625-5.532.275-1.372.052.31.254-.726M2 28c-.435.489-.728 2.907-1 4l.647-1.907C1.41 30.47 1.773 29.017 2 28M12.699 7.407L10 7.593l4-.173zm1.401.253l2.9-.32-3 .169zm4.9-.224l-.502-.018L16 7.582zm8 .177l-.613-.212c-.845.072-2.538-.151-2.376.148.734-.114 2.49-.105 2.989.064m26.95-2.909L56 4.31c-.61.024-1.812.07-2.309-.014-1.291.157-.518.281.258.408m5.759-.124l-.728.156 3.02-.47c-3.481-.022-3.966.324-7 .43 1.287.12 3.083-.212 4.708-.115" fill="#231916"/></g></svg>