<svg width="800" height="600" xmlns="http://www.w3.org/2000/svg">

 <g>
  <title>background</title>
  <rect fill="none" id="canvas_background" height="402" width="582" y="-1" x="-1"/>
 </g>
 <g>
  <title>Layer 1</title>
  <g stroke="null" id="svg_1">
   <path stroke="null" fill="#ffffff" d="m658.884717,147.88058a2.948786,3.376365 0 0 0 -1.545926,0.501567a9.319283,10.67058 0 0 0 -1.433504,-1.926379c0.00634,-0.090605 0.012095,-0.181471 0.012095,-0.273984a2.965178,3.395133 0 0 0 -5.024762,-2.444961a9.089759,10.407777 0 0 0 -2.397112,-0.023952c0.000541,-0.026626 0.003511,-0.052526 0.003511,-0.079278a2.967344,3.397613 0 1 0 -4.918148,2.555913a9.3251,10.677247 0 0 0 -1.344374,1.628142a2.967116,3.397352 0 1 0 -1.897689,6.008774l0.009397,-0.000543c-0.004873,0.141251 -0.009397,0.282627 -0.009397,0.425244a9.289853,10.636891 0 0 0 0.268405,2.536718a5.561476,6.367899 0 1 0 7.25845,7.890186a9.262352,10.6054 0 0 0 6.061693,-1.029586a2.967684,3.398001 0 1 0 3.89167,-4.455966a9.220005,10.556915 0 0 0 1.056319,-4.517203l0.009371,0.000543a2.967344,3.397613 0 0 0 0,-6.795226l0,-0.000019l0,0.00001z" id="svg_21"/>
   <path stroke="null" fill="#ffffff" d="m675.121115,108.693046a2.948803,3.376384 0 0 0 -0.840697,-1.567856a9.319441,10.670765 0 0 0 1.230834,-2.102105c0.077926,-0.017586 0.155843,-0.03586 0.233612,-0.060946a2.965178,3.395133 0 0 0 0.693299,-6.2007a9.089855,10.407894 0 0 0 -0.629661,-2.648426c0.022523,-0.006608 0.045107,-0.010377 0.067586,-0.017625a2.967344,3.397613 0 1 0 -3.48184,-4.727606a9.325126,10.677276 0 0 0 -1.733139,-1.040302a2.967125,3.397352 0 1 0 -5.565772,-0.462684l0.003004,0.010213c-0.120063,0.032915 -0.240144,0.066255 -0.360042,0.104916a9.289433,10.636406 0 0 0 -2.059768,0.983416a5.561476,6.367899 0 1 0 -4.665401,10.138579a9.262317,10.605362 0 0 0 2.508696,6.401666a2.967684,3.398001 0 1 0 4.800896,3.081228a9.219952,10.556847 0 0 0 4.083773,-0.060297l0.002078,0.010474a2.967344,3.397613 0 1 0 5.712481,-1.842005l0.000026,0.000048l0.000035,0.00001z" id="svg_22"/>
   <path stroke="null" fill="#ffffff" d="m615.114184,97.889635a2.948829,3.376413 0 0 0 -0.718817,1.645419a9.319109,10.670387 0 0 0 -2.209026,-0.086642c-0.054189,-0.066478 -0.108902,-0.132579 -0.168567,-0.194959a2.965178,3.395133 0 0 0 -4.964835,2.600513a9.089645,10.407661 0 0 0 -1.631651,2.01087c-0.016803,-0.01841 -0.0315,-0.038379 -0.048783,-0.056431a2.967344,3.397613 0 1 0 -1.667404,5.882087a9.325327,10.677508 0 0 0 0.143739,2.234538a2.967116,3.397352 0 1 0 2.596158,5.656006l0.005982,-0.008313c0.087829,0.099354 0.175964,0.198505 0.267951,0.294661a9.289163,10.636096 0 0 0 1.817143,1.483365a5.561476,6.367899 0 1 0 9.983003,-0.817991a9.262352,10.6054 0 0 0 3.422891,-5.819998a2.967684,3.398001 0 1 0 -0.250205,-6.295181a9.219909,10.556799 0 0 0 -2.201376,-3.938848l0.006672,-0.007548a2.967344,3.397613 0 1 0 -4.382892,-4.58154l0.000009,-0.00001l0.000009,0z" id="svg_23"/>
   <rect stroke="null" fill="#ccc" height="116.085043" width="90.668829" y="280.473545" x="175.644092" id="svg_2"/>
   <path stroke="null" fill="#e6e6e6" d="m213.701114,534.294975l-1.557646,24.382527a6.778965,7.761919 0 0 0 7.170979,8.314025l10.937904,-0.758547a3.457684,3.95905 0 0 0 3.14481,-4.911809l-6.071466,-27.806437l-13.624573,0.780231l-0.000009,0.00001z" id="svg_3"/>
   <path stroke="null" fill="#e6e6e6" d="m305.190546,548.713166c12.872997,3.448007 22.068881,8.348994 28.109807,14.981895a12.393102,14.190114 0 0 0 7.932362,3.893473c3.788749,0.228154 6.886645,-0.258113 9.214791,-1.448803l0.000367,0a3.651639,4.181129 0 0 0 2.16343,-3.445517a3.715889,4.2547 0 0 0 -1.556589,-3.932608l-30.530289,-24.872971l-12.968267,5.940155l-3.025174,3.46383a2.99549,3.42984 0 0 0 0.659572,5.420566l-0.000026,-0.000019l0.000017,0z" id="svg_4"/>
   <path stroke="null" fill="#2f2e41" d="m265.574795,150.612015l-87.267343,-0.925193c0.219447,-14.553705 3.176765,-28.845063 9.641135,-41.633745c4.245572,-8.399136 4.153857,-17.53992 3.130715,-25.240855c-1.578911,-11.884088 2.092683,-24.043266 10.251417,-31.608346a32.901245,37.671953 0 0 1 22.125385,-8.382034l1.694521,0.080848a32.976892,37.758565 0 0 1 27.09394,18.658386a27.470479,31.453725 0 0 1 3.265179,19.159439c-0.553132,6.230175 0.770404,12.523806 3.866282,18.877374c5.341173,13.951515 6.497784,31.804284 6.19876,51.014127l0.000009,0z" id="svg_5"/>
   <path stroke="null" fill="#ffffff" d="m323.960817,535.185907l-17.127163,5.115808l-83.401803,-208.042997l5.21263,202.92718l-17.12718,0c-18.301502,-95.471733 -51.343726,-205.656279 -36.488285,-240.443134l88.614415,-5.968467l60.317378,246.411601l0.000009,0.00001z" id="svg_6"/>
   <circle stroke="null" fill="#ffb9b9" r="23.084425" cy="93.307688" cx="231.16012" id="svg_7"/>
   <path stroke="null" fill="#ffb9b9" d="m242.792991,137.857895l-37.977603,-2.557909c3.72188,-9.781131 5.208612,-19.199931 3.723294,-28.13694l28.297037,0c-0.064128,6.86186 2.918141,18.731618 5.957271,30.694848z" id="svg_8"/>
   <polygon stroke="null" fill="#ffffff" points="275.0948767806258,300.49776775261853 191.6935751871024,307.31939404004515 200.25685817180056,138.07115308884386 214.77785647558994,133.38152372217883 231.16007476667073,137.6445876483849 247.54229305775152,128.26529570379353 257.9675454479511,132.52928954531671 275.0948767806258,300.49776775261853 " id="svg_9"/>
   <path stroke="null" fill="#e6e6e6" d="m197.369088,419.343426l-56.966404,-14.921114c16.939077,-64.316952 47.455646,-211.455251 37.605308,-263.890566l29.786355,-15.347434l-10.425268,294.159114l0.000009,0z" id="svg_10"/>
   <path stroke="null" fill="#e6e6e6" d="m169.816404,232.500398l-21.595107,-15.347434l18.416814,-61.760448a25.445906,29.135578 0 0 1 11.122803,-15.127283l6.204009,-4.112597l-3.723303,62.242346l-10.425224,34.105426l0.000009,-0.00001z" id="svg_11"/>
   <path stroke="null" fill="#e6e6e6" d="m316.142196,404.306031c-17.979851,11.910637 -62.923422,18.550098 -82.657153,10.231626c-1.452097,-58.111204 -4.299875,-222.485954 4.840283,-292.027564l32.764999,15.347434l-2.978635,46.042301c-15.664333,39.386689 29.821497,176.570776 48.030506,220.406203z" id="svg_12"/>
   <polygon stroke="null" fill="#e6e6e6" points="322.00861617946794,228.87705169118271 301.90239529711107,221.20317462126332 275.0948767806258,186.24458580974897 279.5631951600808,141.90763496896034 324.2423289072831,213.5292643400826 322.00861617946794,228.87705169118271 " id="svg_13"/>
   <path stroke="null" fill="#ffb9b9" d="m250.524281,258.014093a5.592924,6.403904 0 0 0 6.680839,4.824809l17.067175,-4.425552l-2.46668,-12.473537l-17.067524,4.424709a5.585963,6.39594 0 0 0 -4.213801,7.649571l-0.000009,0z" id="svg_14"/>
   <path stroke="null" fill="#2f2e41" d="m242.793279,82.43618c-12.822004,-6.036893 -25.485528,-6.473735 -37.977603,-0.85263l-5.21263,-21.315882l47.658177,0l-4.467936,22.168511l-0.000009,0z" id="svg_15"/>
   <path stroke="null" fill="#e6e6e6" d="m265.877416,243.584663l9.680565,20.463242c16.282553,-5.199805 30.393938,-21.59255 43.934882,-40.926494l-3.723303,-13.642165l-23.084425,6.821077l-26.807719,27.284329l0,0.00001z" id="svg_16"/>
   <polygon stroke="null" fill="#ffffff" points="148.13050055039275,183.4462713530229 166.71513140021852,187.2459219443299 209.19266578715906,256.402412232339 186.62600925084917,250.32255946660734 148.13050055039275,183.4462713530229 " id="svg_17"/>
   <path stroke="null" fill="#3f3d56" d="m136.361302,178.549578a1.580667,1.809865 0 0 0 -1.296979,2.803969l39.705816,68.978942a1.575523,1.803974 0 0 0 0.956272,0.764796l18.473938,4.976757a1.577959,1.806765 0 0 0 1.652209,-2.798126l-43.594542,-70.97399a1.568859,1.796349 0 0 0 -1.013352,-0.738984l-14.585569,-2.982562a1.711227,1.959352 0 0 0 -0.297792,-0.030802z" id="svg_18"/>
   <path stroke="null" fill="#ffb9b9" d="m161.129934,227.868774l1.103531,12.727087l17.413672,-1.979215a5.584976,6.394806 0 0 0 -1.103164,-12.727087l-17.414038,1.979215z" id="svg_19"/>
   <path stroke="null" fill="#e6e6e6" d="m145.987687,226.394565a14.364367,16.447209 0 0 0 14.347408,16.337458l2.863375,0l2.084561,-19.890798l-17.259872,-7.114586l-2.035472,10.667926z" id="svg_20"/>
   <rect stroke="null" x="50.72168" fill="#3f3d56" height="2.114749" width="428.250858" y="570.833861" id="svg_24"/>
  </g>
 </g>
</svg>